{"asset": {"generator": "Khronos glTF Blender I/O v3.3.32", "version": "2.0"}, "scene": 0, "scenes": [{"name": "Scene", "nodes": [0]}], "nodes": [{"mesh": 0, "name": "garden_gnome"}], "materials": [{"name": "garden_gnome_01"}], "meshes": [{"name": "garden_gnome_01", "primitives": [{"attributes": {"POSITION": 0, "NORMAL": 1, "TEXCOORD_0": 2}, "indices": 3, "material": 0}]}], "accessors": [{"bufferView": 0, "componentType": 5126, "count": 15935, "max": [0.11409468948841095, 0.5990185737609863, 0.1119869202375412], "min": [-0.14382389187812805, -6.727918662363663e-05, -0.09772905707359314], "type": "VEC3"}, {"bufferView": 1, "componentType": 5126, "count": 15935, "type": "VEC3"}, {"bufferView": 2, "componentType": 5126, "count": 15935, "type": "VEC2"}, {"bufferView": 3, "componentType": 5123, "count": 86574, "type": "SCALAR"}], "bufferViews": [{"buffer": 0, "byteLength": 191220, "byteOffset": 0, "target": 34962}, {"buffer": 0, "byteLength": 191220, "byteOffset": 191220, "target": 34962}, {"buffer": 0, "byteLength": 127480, "byteOffset": 382440, "target": 34962}, {"buffer": 0, "byteLength": 173148, "byteOffset": 509920, "target": 34963}], "buffers": [{"byteLength": 683068, "uri": "garden_gnome.bin"}]}