{"asset": {"generator": "Khronos glTF Blender I/O v3.3.32", "version": "2.0"}, "extensionsUsed": ["KHR_materials_specular", "KHR_materials_ior"], "scene": 0, "scenes": [{"name": "blend_export", "nodes": [0]}], "nodes": [{"mesh": 0, "name": "rubber_duck_toy"}], "materials": [{"name": "rubber_duck_toy"}], "meshes": [{"name": "rubberduck", "primitives": [{"attributes": {"POSITION": 0, "NORMAL": 1, "TEXCOORD_0": 2}, "indices": 3, "material": 0}]}], "accessors": [{"bufferView": 0, "componentType": 5126, "count": 2489, "max": [0.1067524179816246, 0.2854783236980438, 0.15390841662883759], "min": [-0.106752410531044, -4.4539570808410645e-05, -0.14609377086162567], "type": "VEC3"}, {"bufferView": 1, "componentType": 5126, "count": 2489, "type": "VEC3"}, {"bufferView": 2, "componentType": 5126, "count": 2489, "type": "VEC2"}, {"bufferView": 3, "componentType": 5123, "count": 12864, "type": "SCALAR"}], "bufferViews": [{"buffer": 0, "byteLength": 29868, "byteOffset": 0, "target": 34962}, {"buffer": 0, "byteLength": 29868, "byteOffset": 29868, "target": 34962}, {"buffer": 0, "byteLength": 19912, "byteOffset": 59736, "target": 34962}, {"buffer": 0, "byteLength": 25728, "byteOffset": 79648, "target": 34963}], "buffers": [{"byteLength": 105376, "uri": "rubber_duck_toy.bin"}]}