{"asset": {"generator": "Khronos glTF Blender I/O v3.3.32", "version": "2.0"}, "extensionsUsed": ["KHR_materials_transmission", "KHR_materials_ior", "KHR_materials_emissive_strength"], "scene": 0, "scenes": [{"name": "Scene", "nodes": [0]}], "nodes": [{"mesh": 0, "name": "lightbulb_01"}], "materials": [{"name": "lightbulb_01_glass"}, {"name": "lightbulb_01_base"}], "meshes": [{"name": "Cube.004", "primitives": [{"attributes": {"POSITION": 0, "NORMAL": 1, "TEXCOORD_0": 2}, "indices": 3, "material": 0}, {"attributes": {"POSITION": 4, "NORMAL": 5, "TEXCOORD_0": 6}, "indices": 7, "material": 1}]}], "accessors": [{"bufferView": 0, "componentType": 5126, "count": 1197, "max": [0.029994994401931763, 0.08343717455863953, 0.029995005577802658], "min": [-0.029995005577802658, 0.008526600897312164, -0.02999500185251236], "type": "VEC3"}, {"bufferView": 1, "componentType": 5126, "count": 1197, "type": "VEC3"}, {"bufferView": 2, "componentType": 5126, "count": 1197, "type": "VEC2"}, {"bufferView": 3, "componentType": 5123, "count": 6240, "type": "SCALAR"}, {"bufferView": 4, "componentType": 5126, "count": 1570, "max": [0.014109416864812374, 0.051748357713222504, 0.014108626171946526], "min": [-0.014109295792877674, -0.016851793974637985, -0.014110085554420948], "type": "VEC3"}, {"bufferView": 5, "componentType": 5126, "count": 1570, "type": "VEC3"}, {"bufferView": 6, "componentType": 5126, "count": 1570, "type": "VEC2"}, {"bufferView": 7, "componentType": 5123, "count": 6876, "type": "SCALAR"}], "bufferViews": [{"buffer": 0, "byteLength": 14364, "byteOffset": 0, "target": 34962}, {"buffer": 0, "byteLength": 14364, "byteOffset": 14364, "target": 34962}, {"buffer": 0, "byteLength": 9576, "byteOffset": 28728, "target": 34962}, {"buffer": 0, "byteLength": 12480, "byteOffset": 38304, "target": 34963}, {"buffer": 0, "byteLength": 18840, "byteOffset": 50784, "target": 34962}, {"buffer": 0, "byteLength": 18840, "byteOffset": 69624, "target": 34962}, {"buffer": 0, "byteLength": 12560, "byteOffset": 88464, "target": 34962}, {"buffer": 0, "byteLength": 13752, "byteOffset": 101024, "target": 34963}], "buffers": [{"byteLength": 114776, "uri": "lightbulb_01.bin"}]}