{"asset": {"generator": "Khronos glTF Blender I/O v5.1.18", "version": "2.0"}, "extensionsUsed": ["KHR_materials_transmission"], "scene": 0, "scenes": [{"name": "Scene", "nodes": [0]}], "nodes": [{"mesh": 0, "name": "round_spectacles"}], "materials": [{"name": "round_spectacles"}, {"name": "round_spectacles_glass"}], "meshes": [{"name": "Circle.008", "primitives": [{"attributes": {"POSITION": 0, "NORMAL": 1, "TEXCOORD_0": 2, "COLOR_0": 3, "COLOR_1": 4}, "indices": 5, "material": 0}, {"attributes": {"POSITION": 6, "NORMAL": 7, "TEXCOORD_0": 8, "COLOR_0": 9, "COLOR_1": 10}, "indices": 11, "material": 1}]}], "accessors": [{"bufferView": 0, "componentType": 5126, "count": 7046, "max": [0.07890711724758148, 0.023121219128370285, 0.000884895445778966], "min": [-0.07890711724758148, -0.02314120903611183, -0.14814631640911102], "type": "VEC3"}, {"bufferView": 1, "componentType": 5126, "count": 7046, "type": "VEC3"}, {"bufferView": 2, "componentType": 5126, "count": 7046, "type": "VEC2"}, {"bufferView": 3, "componentType": 5121, "count": 7046, "normalized": true, "type": "VEC4"}, {"bufferView": 4, "componentType": 5123, "count": 7046, "normalized": true, "type": "VEC4"}, {"bufferView": 5, "componentType": 5123, "count": 31422, "type": "SCALAR"}, {"bufferView": 6, "componentType": 5126, "count": 776, "max": [0.05477234721183777, 0.021542247384786606, 0.0007684709271416068], "min": [-0.05477234721183777, -0.021530181169509888, -0.007075721397995949], "type": "VEC3"}, {"bufferView": 7, "componentType": 5126, "count": 776, "type": "VEC3"}, {"bufferView": 8, "componentType": 5126, "count": 776, "type": "VEC2"}, {"bufferView": 9, "componentType": 5121, "count": 776, "normalized": true, "type": "VEC4"}, {"bufferView": 10, "componentType": 5123, "count": 776, "normalized": true, "type": "VEC4"}, {"bufferView": 11, "componentType": 5123, "count": 4008, "type": "SCALAR"}], "bufferViews": [{"buffer": 0, "byteLength": 84552, "byteOffset": 0, "target": 34962}, {"buffer": 0, "byteLength": 84552, "byteOffset": 84552, "target": 34962}, {"buffer": 0, "byteLength": 56368, "byteOffset": 169104, "target": 34962}, {"buffer": 0, "byteLength": 28184, "byteOffset": 225472, "target": 34962}, {"buffer": 0, "byteLength": 56368, "byteOffset": 253656, "target": 34962}, {"buffer": 0, "byteLength": 62844, "byteOffset": 310024, "target": 34963}, {"buffer": 0, "byteLength": 9312, "byteOffset": 372868, "target": 34962}, {"buffer": 0, "byteLength": 9312, "byteOffset": 382180, "target": 34962}, {"buffer": 0, "byteLength": 6208, "byteOffset": 391492, "target": 34962}, {"buffer": 0, "byteLength": 3104, "byteOffset": 397700, "target": 34962}, {"buffer": 0, "byteLength": 6208, "byteOffset": 400804, "target": 34962}, {"buffer": 0, "byteLength": 8016, "byteOffset": 407012, "target": 34963}], "buffers": [{"byteLength": 415028, "uri": "round_spectacles.bin"}]}