{"asset": {"generator": "Khronos glTF Blender I/O v3.2.40", "version": "2.0"}, "scene": 0, "scenes": [{"name": "Scene", "nodes": [0]}], "nodes": [{"mesh": 0, "name": "desk_lamp_arm_01"}], "materials": [{"name": "desk_lamp_arm_01"}, {"name": "desk_lamp_arm_01_light"}], "meshes": [{"name": "Box.001", "primitives": [{"attributes": {"POSITION": 0, "NORMAL": 1, "TEXCOORD_0": 2}, "indices": 3, "material": 0}, {"attributes": {"POSITION": 4, "NORMAL": 5, "TEXCOORD_0": 6}, "indices": 7, "material": 1}]}], "accessors": [{"bufferView": 0, "componentType": 5126, "count": 17533, "max": [0.08325615525245667, 0.8046169281005859, 0.3172350823879242], "min": [-0.11847317218780518, -0.08799377083778381, -0.29663750529289246], "type": "VEC3"}, {"bufferView": 1, "componentType": 5126, "count": 17533, "type": "VEC3"}, {"bufferView": 2, "componentType": 5126, "count": 17533, "type": "VEC2"}, {"bufferView": 3, "componentType": 5123, "count": 67794, "type": "SCALAR"}, {"bufferView": 4, "componentType": 5126, "count": 973, "max": [0.027660036459565163, 0.7424256801605225, -0.1412101536989212], "min": [-0.03705751523375511, 0.6487915515899658, -0.21220247447490692], "type": "VEC3"}, {"bufferView": 5, "componentType": 5126, "count": 973, "type": "VEC3"}, {"bufferView": 6, "componentType": 5126, "count": 973, "type": "VEC2"}, {"bufferView": 7, "componentType": 5123, "count": 4512, "type": "SCALAR"}], "bufferViews": [{"buffer": 0, "byteLength": 210396, "byteOffset": 0}, {"buffer": 0, "byteLength": 210396, "byteOffset": 210396}, {"buffer": 0, "byteLength": 140264, "byteOffset": 420792}, {"buffer": 0, "byteLength": 135588, "byteOffset": 561056}, {"buffer": 0, "byteLength": 11676, "byteOffset": 696644}, {"buffer": 0, "byteLength": 11676, "byteOffset": 708320}, {"buffer": 0, "byteLength": 7784, "byteOffset": 719996}, {"buffer": 0, "byteLength": 9024, "byteOffset": 727780}], "buffers": [{"byteLength": 736804, "uri": "desk_lamp_arm_01.bin"}]}