{"asset": {"generator": "Khronos glTF Blender I/O v1.6.16", "version": "2.0"}, "extensionsUsed": ["KHR_materials_transmission"], "scene": 0, "scenes": [{"name": "Scene", "nodes": [0]}], "nodes": [{"mesh": 0, "name": "magnifying_glass_01"}], "materials": [{"name": "magnifying_glass_01"}, {"name": "magnifying_glass_01_lense"}], "meshes": [{"name": "Sphere.002", "primitives": [{"attributes": {"POSITION": 0, "NORMAL": 1, "TEXCOORD_0": 2}, "indices": 3, "material": 0}, {"attributes": {"POSITION": 4, "NORMAL": 5, "TEXCOORD_0": 6}, "indices": 7, "material": 1}]}], "accessors": [{"bufferView": 0, "componentType": 5126, "count": 2917, "max": [0.06607866287231445, 0.2715718150138855, 0.013359002768993378], "min": [-0.06605884432792664, -2.2023700918527567e-10, -0.013358986005187035], "type": "VEC3"}, {"bufferView": 1, "componentType": 5126, "count": 2917, "type": "VEC3"}, {"bufferView": 2, "componentType": 5126, "count": 2917, "type": "VEC2"}, {"bufferView": 3, "componentType": 5123, "count": 14040, "type": "SCALAR"}, {"bufferView": 4, "componentType": 5126, "count": 1414, "max": [0.06516657769680023, 0.27067962288856506, 0.01181679405272007], "min": [-0.06516657769680023, 0.14034637808799744, -0.011816756799817085], "type": "VEC3"}, {"bufferView": 5, "componentType": 5126, "count": 1414, "type": "VEC3"}, {"bufferView": 6, "componentType": 5126, "count": 1414, "type": "VEC2"}, {"bufferView": 7, "componentType": 5123, "count": 7680, "type": "SCALAR"}], "bufferViews": [{"buffer": 0, "byteLength": 35004, "byteOffset": 0}, {"buffer": 0, "byteLength": 35004, "byteOffset": 35004}, {"buffer": 0, "byteLength": 23336, "byteOffset": 70008}, {"buffer": 0, "byteLength": 28080, "byteOffset": 93344}, {"buffer": 0, "byteLength": 16968, "byteOffset": 121424}, {"buffer": 0, "byteLength": 16968, "byteOffset": 138392}, {"buffer": 0, "byteLength": 11312, "byteOffset": 155360}, {"buffer": 0, "byteLength": 15360, "byteOffset": 166672}], "buffers": [{"byteLength": 182032, "uri": "magnifying_glass_01.bin"}]}