{"asset": {"generator": "Khronos glTF Blender I/O v3.3.32", "version": "2.0"}, "scene": 0, "scenes": [{"name": "Scene", "nodes": [0]}], "nodes": [{"mesh": 0, "name": "dartboard"}], "materials": [{"name": "dartboard"}], "meshes": [{"name": "Circle.002", "primitives": [{"attributes": {"POSITION": 0, "NORMAL": 1, "TEXCOORD_0": 2}, "indices": 3, "material": 0}]}], "accessors": [{"bufferView": 0, "componentType": 5126, "count": 4409, "max": [0.225348100066185, 0.2253481149673462, 0.03977855294942856], "min": [-0.22534812986850739, -0.225348100066185, -8.33373547948213e-09], "type": "VEC3"}, {"bufferView": 1, "componentType": 5126, "count": 4409, "type": "VEC3"}, {"bufferView": 2, "componentType": 5126, "count": 4409, "type": "VEC2"}, {"bufferView": 3, "componentType": 5123, "count": 20400, "type": "SCALAR"}], "bufferViews": [{"buffer": 0, "byteLength": 52908, "byteOffset": 0, "target": 34962}, {"buffer": 0, "byteLength": 52908, "byteOffset": 52908, "target": 34962}, {"buffer": 0, "byteLength": 35272, "byteOffset": 105816, "target": 34962}, {"buffer": 0, "byteLength": 40800, "byteOffset": 141088, "target": 34963}], "buffers": [{"byteLength": 181888, "uri": "dartboard.bin"}]}